<svg width="372" height="44" viewBox="0 0 372 44" fill="none" xmlns="http://www.w3.org/2000/svg">
<path d="M6.3 13V6.8H24.9V13H6.3ZM6.3 37.8H0.1V13H6.3V37.8ZM6.3 44V37.8H24.9V44H6.3ZM37.3 13V6.8H55.9V13H37.3ZM37.3 37.8H31.1V13H37.3V37.8ZM55.9 13H62.1V37.8H55.9V13ZM55.9 37.8V44H37.3V37.8H55.9ZM74.4758 13H80.6758V19.2H74.4758V44H68.2758V6.8H74.4758V13ZM93.0758 6.8H99.2758V44H93.0758V37.8H86.8758V31.6H93.0758V6.8ZM86.8758 19.2V31.6H80.6758V19.2H86.8758ZM136.452 6.8V13H124.052V44H117.852V13H105.452V6.8H136.452ZM155.052 6.8V13H148.852V6.8H155.052ZM148.852 25.4H142.652V13H148.852V25.4ZM155.052 25.4V13H161.252V25.4H155.052ZM161.252 25.4H167.452V44H161.252V37.8H142.652V44H136.452V25.4H142.652V31.6H161.252V25.4ZM179.827 13V6.8H198.427V13H179.827ZM179.827 37.8H173.627V13H179.827V37.8ZM179.827 44V37.8H198.427V44H179.827ZM235.627 6.8V13H223.227V44H217.027V13H204.627V6.8H235.627ZM266.591 37.8H260.391V6.8H266.591V37.8ZM285.191 6.8H291.391V37.8H285.191V6.8ZM285.191 37.8V44H266.591V37.8H285.191ZM303.767 13V6.8H328.567V13H303.767ZM297.567 13H303.767V19.2H297.567V13ZM303.767 25.4V19.2H322.367V25.4H303.767ZM322.367 37.8V25.4H328.567V37.8H322.367ZM322.367 37.8V44H303.767V37.8H322.367ZM353.33 0.599997H359.53V6.8H353.33V0.599997ZM365.73 0.599997H371.93V6.8H365.73V0.599997ZM365.73 13H359.53V6.8H365.73V13ZM359.53 19.2H353.33V13H359.53V19.2ZM365.73 13H371.93V19.2H365.73V13Z" fill="white"/>
</svg>
