<svg width="323" height="44" viewBox="0 0 323 44" fill="none" xmlns="http://www.w3.org/2000/svg">
<path d="M6.3 13V6.8H24.9V13H6.3ZM6.3 37.8H0.1V13H6.3V37.8ZM24.9 13H31.1V37.8H24.9V13ZM24.9 37.8V44H6.3V37.8H24.9ZM43.4758 37.8H37.2758V6.8H43.4758V37.8ZM62.0758 6.8H68.2758V37.8H62.0758V6.8ZM62.0758 37.8V44H43.4758V37.8H62.0758ZM99.2516 25.4V31.6H80.6516V44H74.4516V6.8H99.2516V13H80.6516V25.4H99.2516ZM99.2516 13H105.452V25.4H99.2516V13ZM99.2516 44V31.6H105.452V44H99.2516ZM161.215 6.8V13H148.815V44H142.615V13H130.215V6.8H161.215ZM173.591 13V19.2H192.191V25.4H173.591V37.8H192.191V44H167.391V6.8H192.191V13H173.591ZM216.991 6.8V13H210.791V6.8H216.991ZM210.791 25.4H204.591V13H210.791V25.4ZM216.991 25.4V13H223.191V25.4H216.991ZM223.191 25.4H229.391V44H223.191V37.8H204.591V44H198.391V25.4H204.591V31.6H223.191V25.4ZM241.767 6.8H247.967V13H241.767V6.8ZM266.567 6.8H272.767V13H266.567V6.8ZM235.567 13H241.767V44H235.567V13ZM254.167 31.6H247.967V13H254.167V31.6ZM260.367 13H266.567V31.6H260.367V13ZM272.767 13H278.967V44H272.767V13ZM254.167 31.6H260.367V44H254.167V31.6ZM303.743 0.599997H309.943V6.8H303.743V0.599997ZM316.143 0.599997H322.343V6.8H316.143V0.599997ZM316.143 13H309.943V6.8H316.143V13ZM309.943 19.2H303.743V13H309.943V19.2ZM316.143 13H322.343V19.2H316.143V13Z" fill="white"/>
</svg>
