<svg width="444" height="44" viewBox="0 0 444 44" fill="none" xmlns="http://www.w3.org/2000/svg">
<path d="M6.8 13V6.8H25.4V13H6.8ZM6.8 37.8H0.6V13H6.8V37.8ZM25.4 13H31.6V37.8H25.4V13ZM25.4 37.8V44H6.8V37.8H25.4ZM43.9758 37.8H37.7758V6.8H43.9758V37.8ZM62.5758 6.8H68.7758V37.8H62.5758V6.8ZM62.5758 37.8V44H43.9758V37.8H62.5758ZM99.7516 25.4V31.6H81.1516V44H74.9516V6.8H99.7516V13H81.1516V25.4H99.7516ZM99.7516 13H105.952V25.4H99.7516V13ZM99.7516 44V31.6H105.952V44H99.7516ZM155.515 25.4V31.6H136.915V44H130.715V6.8H155.515V13H136.915V25.4H155.515ZM155.515 13H161.715V25.4H155.515V13ZM192.691 25.4V31.6H174.091V44H167.891V6.8H192.691V13H174.091V25.4H192.691ZM192.691 13H198.891V25.4H192.691V13ZM192.691 44V31.6H198.891V44H192.691ZM211.267 13V6.8H229.867V13H211.267ZM211.267 37.8H205.067V13H211.267V37.8ZM229.867 13H236.067V37.8H229.867V13ZM229.867 37.8V44H211.267V37.8H229.867ZM260.843 6.8H267.043V37.8H260.843V6.8ZM242.243 31.6H248.443V37.8H242.243V31.6ZM248.443 37.8H260.843V44H248.443V37.8ZM279.443 13V19.2H298.043V25.4H279.443V37.8H298.043V44H273.243V6.8H298.043V13H279.443ZM310.443 13V6.8H329.043V13H310.443ZM310.443 37.8H304.243V13H310.443V37.8ZM310.443 44V37.8H329.043V44H310.443ZM366.243 6.8V13H353.843V44H347.643V13H335.243V6.8H366.243ZM375.53 13V6.8H400.33V13H375.53ZM369.33 13H375.53V19.2H369.33V13ZM375.53 25.4V19.2H394.13V25.4H375.53ZM394.13 37.8V25.4H400.33V37.8H394.13ZM394.13 37.8V44H375.53V37.8H394.13ZM425.094 0.599997H431.294V6.8H425.094V0.599997ZM437.494 0.599997H443.694V6.8H437.494V0.599997ZM437.494 13H431.294V6.8H437.494V13ZM431.294 19.2H425.094V13H431.294V19.2ZM437.494 13H443.694V19.2H437.494V13Z" fill="white"/>
</svg>
